<svg id="svg" version="1.1" width="1000" height="892" xmlns="http://www.w3.org/2000/svg" xmlns:xlink="http://www.w3.org/1999/xlink" style="display: block;"><g id="svgg"><path id="path0" d="" stroke="none" fill="#000000" fill-rule="evenodd"></path><path id="path1" d="M341.905 247.483 C 342.402 247.579,343.122 247.575,343.505 247.475 C 343.887 247.375,343.480 247.296,342.600 247.301 C 341.720 247.305,341.407 247.387,341.905 247.483 M316.577 284.600 C 316.577 291.200,316.632 293.956,316.699 290.725 C 316.766 287.493,316.766 282.093,316.699 278.725 C 316.632 275.356,316.577 278.000,316.577 284.600 " stroke="none" fill="#002424" fill-rule="evenodd"></path><path id="path2" d="M192.000 67.200 L 192.000 80.400 165.600 80.400 L 139.200 80.400 139.200 93.400 L 139.200 106.400 126.200 106.400 L 113.200 106.400 113.200 119.794 L 113.200 133.188 101.900 133.294 L 90.600 133.400 90.118 138.800 C 89.683 143.669,89.758 151.088,90.260 152.900 C 91.067 155.812,77.853 150.958,73.566 146.767 C 72.053 145.288,71.694 145.297,71.915 146.806 C 72.379 149.962,69.155 153.067,63.377 155.028 C 60.489 156.009,55.897 157.180,54.900 157.191 C 54.405 157.196,54.000 157.380,54.000 157.600 C 54.000 157.861,60.390 158.000,72.371 158.000 L 90.743 158.000 91.199 160.300 C 92.862 168.681,97.437 180.492,100.237 183.631 C 100.547 183.979,100.800 184.396,100.800 184.558 C 100.800 185.494,107.216 193.294,111.364 197.400 C 131.150 216.987,159.433 224.153,198.000 219.353 C 203.585 218.658,209.481 217.725,211.600 217.200 C 212.370 217.010,214.260 216.562,215.800 216.206 C 220.426 215.135,228.675 212.645,232.400 211.196 C 233.610 210.725,235.056 210.197,235.613 210.023 C 237.085 209.562,240.755 207.895,246.000 205.304 C 262.779 197.016,278.015 184.465,288.968 169.909 C 291.589 166.427,296.000 160.073,296.000 159.781 C 296.000 157.989,295.837 158.000,322.113 158.000 C 338.500 158.000,346.764 157.865,346.600 157.600 C 346.464 157.380,345.974 157.200,345.512 157.200 C 344.716 157.200,342.753 156.700,338.200 155.338 C 332.163 153.532,328.800 150.707,328.800 147.442 C 328.800 145.181,328.804 145.181,326.265 147.424 C 322.241 150.979,316.103 153.249,308.509 153.990 C 304.631 154.369,299.440 154.164,299.686 153.642 C 299.749 153.509,300.982 151.060,302.426 148.200 C 303.870 145.340,305.562 141.785,306.186 140.300 L 307.320 137.600 309.960 137.599 C 322.483 137.594,333.458 133.561,340.336 126.438 C 344.101 122.538,348.140 115.350,346.961 114.647 C 337.343 108.916,326.391 106.821,317.400 108.992 C 313.468 109.941,313.291 109.890,312.972 107.700 C 312.602 105.166,311.010 100.791,309.568 98.346 C 308.926 97.257,308.400 96.269,308.400 96.153 C 308.400 94.574,299.288 85.004,294.631 81.690 L 293.254 80.711 291.927 82.218 C 282.456 92.975,280.924 112.240,288.576 124.361 C 289.881 126.429,289.866 126.583,288.299 127.326 C 278.553 131.951,272.401 133.197,259.300 133.199 L 250.400 133.200 250.400 119.800 L 250.400 106.400 237.200 106.400 L 224.000 106.400 224.000 80.200 L 224.000 54.000 208.000 54.000 L 192.000 54.000 192.000 67.200 M219.400 70.000 L 219.400 81.400 207.900 81.506 L 196.400 81.612 196.400 70.000 L 196.400 58.388 207.900 58.494 L 219.400 58.600 219.400 70.000 M198.400 70.000 C 198.400 78.933,198.423 79.200,199.200 79.200 C 199.977 79.200,200.000 78.933,200.000 70.000 C 200.000 61.067,199.977 60.800,199.200 60.800 C 198.423 60.800,198.400 61.067,198.400 70.000 M202.000 70.000 C 202.000 78.933,202.023 79.200,202.800 79.200 C 203.577 79.200,203.600 78.933,203.600 70.000 C 203.600 61.067,203.577 60.800,202.800 60.800 C 202.023 60.800,202.000 61.067,202.000 70.000 M205.200 70.000 L 205.200 79.200 206.200 79.200 L 207.200 79.200 207.200 70.000 L 207.200 60.800 206.200 60.800 L 205.200 60.800 205.200 70.000 M208.800 70.000 C 208.800 78.933,208.823 79.200,209.600 79.200 C 210.377 79.200,210.400 78.933,210.400 70.000 C 210.400 61.067,210.377 60.800,209.600 60.800 C 208.823 60.800,208.800 61.067,208.800 70.000 M212.400 70.000 C 212.400 78.933,212.423 79.200,213.200 79.200 C 213.977 79.200,214.000 78.933,214.000 70.000 C 214.000 61.067,213.977 60.800,213.200 60.800 C 212.423 60.800,212.400 61.067,212.400 70.000 M215.600 70.000 C 215.600 78.933,215.623 79.200,216.400 79.200 C 217.177 79.200,217.200 78.933,217.200 70.000 C 217.200 61.067,217.177 60.800,216.400 60.800 C 215.623 60.800,215.600 61.067,215.600 70.000 M166.800 96.206 L 166.800 107.612 155.300 107.506 L 143.800 107.400 143.694 96.100 L 143.588 84.800 155.194 84.800 L 166.800 84.800 166.800 96.206 M193.200 96.200 L 193.200 107.600 181.600 107.600 L 170.000 107.600 170.000 96.200 L 170.000 84.800 181.600 84.800 L 193.200 84.800 193.200 96.200 M219.200 96.200 L 219.200 107.600 207.800 107.600 L 196.400 107.600 196.400 96.200 L 196.400 84.800 207.800 84.800 L 219.200 84.800 219.200 96.200 M146.000 96.229 C 146.000 104.994,146.049 105.649,146.700 105.524 C 147.873 105.299,147.979 86.800,146.807 86.800 C 146.020 86.800,146.000 87.038,146.000 96.229 M149.293 96.095 C 149.391 104.579,149.461 105.401,150.100 105.524 C 150.751 105.649,150.800 104.994,150.800 96.229 C 150.800 87.038,150.780 86.800,149.993 86.800 C 149.203 86.800,149.188 87.003,149.293 96.095 M152.800 96.200 C 152.800 105.333,152.823 105.600,153.600 105.600 C 154.377 105.600,154.400 105.333,154.400 96.200 C 154.400 87.067,154.377 86.800,153.600 86.800 C 152.823 86.800,152.800 87.067,152.800 96.200 M156.400 96.200 C 156.400 105.333,156.423 105.600,157.200 105.600 C 157.977 105.600,158.000 105.333,158.000 96.200 C 158.000 87.067,157.977 86.800,157.200 86.800 C 156.423 86.800,156.400 87.067,156.400 96.200 M159.600 96.200 C 159.600 105.333,159.623 105.600,160.400 105.600 C 161.177 105.600,161.200 105.333,161.200 96.200 C 161.200 87.067,161.177 86.800,160.400 86.800 C 159.623 86.800,159.600 87.067,159.600 96.200 M163.200 96.200 C 163.200 105.333,163.223 105.600,164.000 105.600 C 164.777 105.600,164.800 105.333,164.800 96.200 C 164.800 87.067,164.777 86.800,164.000 86.800 C 163.223 86.800,163.200 87.067,163.200 96.200 M172.400 96.200 C 172.400 104.289,172.484 105.600,173.000 105.600 C 173.516 105.600,173.600 104.289,173.600 96.200 C 173.600 88.111,173.516 86.800,173.000 86.800 C 172.484 86.800,172.400 88.111,172.400 96.200 M175.600 96.200 C 175.600 105.333,175.623 105.600,176.400 105.600 C 177.177 105.600,177.200 105.333,177.200 96.200 C 177.200 87.067,177.177 86.800,176.400 86.800 C 175.623 86.800,175.600 87.067,175.600 96.200 M179.200 96.200 C 179.200 105.333,179.223 105.600,180.000 105.600 C 180.777 105.600,180.800 105.333,180.800 96.200 C 180.800 87.067,180.777 86.800,180.000 86.800 C 179.223 86.800,179.200 87.067,179.200 96.200 M182.800 96.200 C 182.800 104.289,182.884 105.600,183.400 105.600 C 183.916 105.600,184.000 104.289,184.000 96.200 C 184.000 88.111,183.916 86.800,183.400 86.800 C 182.884 86.800,182.800 88.111,182.800 96.200 M186.000 96.200 C 186.000 105.333,186.023 105.600,186.800 105.600 C 187.577 105.600,187.600 105.333,187.600 96.200 C 187.600 87.067,187.577 86.800,186.800 86.800 C 186.023 86.800,186.000 87.067,186.000 96.200 M189.600 96.200 C 189.600 104.289,189.684 105.600,190.200 105.600 C 190.716 105.600,190.800 104.289,190.800 96.200 C 190.800 88.111,190.716 86.800,190.200 86.800 C 189.684 86.800,189.600 88.111,189.600 96.200 M198.493 96.095 C 198.591 104.579,198.661 105.401,199.300 105.524 C 199.951 105.649,200.000 104.994,200.000 96.229 C 200.000 87.038,199.980 86.800,199.193 86.800 C 198.403 86.800,198.388 87.003,198.493 96.095 M202.000 96.200 C 202.000 105.333,202.023 105.600,202.800 105.600 C 203.577 105.600,203.600 105.333,203.600 96.200 C 203.600 87.067,203.577 86.800,202.800 86.800 C 202.023 86.800,202.000 87.067,202.000 96.200 M205.293 96.100 C 205.397 105.098,205.426 105.400,206.200 105.400 C 206.974 105.400,207.003 105.098,207.107 96.100 L 207.215 86.800 206.200 86.800 L 205.185 86.800 205.293 96.100 M208.800 96.200 C 208.800 105.333,208.823 105.600,209.600 105.600 C 210.377 105.600,210.400 105.333,210.400 96.200 C 210.400 87.067,210.377 86.800,209.600 86.800 C 208.823 86.800,208.800 87.067,208.800 96.200 M212.400 96.200 C 212.400 105.333,212.423 105.600,213.200 105.600 C 213.977 105.600,214.000 105.333,214.000 96.200 C 214.000 87.067,213.977 86.800,213.200 86.800 C 212.423 86.800,212.400 87.067,212.400 96.200 M215.600 96.200 C 215.600 105.333,215.623 105.600,216.400 105.600 C 217.177 105.600,217.200 105.333,217.200 96.200 C 217.200 87.067,217.177 86.800,216.400 86.800 C 215.623 86.800,215.600 87.067,215.600 96.200 M296.824 89.312 C 304.763 96.764,309.200 105.409,309.200 113.425 C 309.200 114.841,309.283 116.000,309.385 116.000 C 309.487 116.000,310.522 115.650,311.685 115.223 C 321.267 111.704,334.083 112.192,340.698 116.328 L 341.596 116.889 340.498 118.884 C 335.745 127.518,325.732 132.271,311.259 132.764 L 304.317 133.000 301.655 139.200 C 299.066 145.229,295.607 152.087,294.646 153.100 C 293.829 153.961,284.458 150.916,283.179 149.374 C 282.517 148.577,281.854 148.656,280.962 149.641 C 273.612 157.764,233.408 156.623,226.343 148.092 L 225.400 146.953 223.252 148.703 C 212.285 157.636,186.272 157.310,176.738 148.121 C 175.327 146.761,175.260 146.740,174.840 147.525 C 170.149 156.291,129.388 157.975,119.678 149.804 L 118.441 148.764 116.770 149.819 C 112.713 152.380,104.629 154.400,98.438 154.400 L 94.905 154.400 94.657 152.900 C 94.336 150.962,94.325 139.061,94.643 138.233 C 94.863 137.658,102.878 137.599,181.343 137.593 C 277.427 137.585,271.898 137.738,281.800 134.810 C 286.355 133.463,296.400 128.314,296.400 127.326 C 296.400 127.237,295.498 126.081,294.396 124.756 C 287.456 116.418,286.186 99.780,291.742 90.000 C 293.670 86.606,293.907 86.574,296.824 89.312 M140.306 111.134 C 140.700 111.383,140.789 113.956,140.706 122.628 L 140.600 133.800 129.100 133.906 L 117.600 134.012 117.600 122.673 C 117.600 116.436,117.720 111.213,117.867 111.067 C 118.249 110.684,139.699 110.748,140.306 111.134 M166.706 122.506 L 166.812 134.012 155.306 133.906 L 143.800 133.800 143.693 122.806 C 143.635 116.759,143.675 111.581,143.783 111.299 C 143.938 110.897,146.393 110.810,155.290 110.894 L 166.600 111.000 166.706 122.506 M193.106 122.500 L 193.212 134.000 181.606 134.000 L 170.000 134.000 170.000 122.667 C 170.000 116.433,170.123 111.211,170.273 111.061 C 170.423 110.911,175.598 110.836,181.773 110.894 L 193.000 111.000 193.106 122.500 M219.400 122.400 L 219.400 133.800 207.900 133.906 L 196.400 134.012 196.400 122.400 L 196.400 110.788 207.900 110.894 L 219.400 111.000 219.400 122.400 M245.506 122.500 L 245.612 134.000 234.206 134.000 L 222.800 134.000 222.800 122.394 L 222.800 110.788 234.100 110.894 L 245.400 111.000 245.506 122.500 M119.600 122.400 C 119.600 131.333,119.623 131.600,120.400 131.600 C 121.177 131.600,121.200 131.333,121.200 122.400 C 121.200 113.467,121.177 113.200,120.400 113.200 C 119.623 113.200,119.600 113.467,119.600 122.400 M123.200 122.400 C 123.200 131.333,123.223 131.600,124.000 131.600 C 124.777 131.600,124.800 131.333,124.800 122.400 C 124.800 113.467,124.777 113.200,124.000 113.200 C 123.223 113.200,123.200 113.467,123.200 122.400 M126.400 122.400 C 126.400 131.333,126.423 131.600,127.200 131.600 C 127.977 131.600,128.000 131.333,128.000 122.400 C 128.000 113.467,127.977 113.200,127.200 113.200 C 126.423 113.200,126.400 113.467,126.400 122.400 M130.000 122.400 C 130.000 131.333,130.023 131.600,130.800 131.600 C 131.577 131.600,131.600 131.333,131.600 122.400 C 131.600 113.467,131.577 113.200,130.800 113.200 C 130.023 113.200,130.000 113.467,130.000 122.400 M133.600 122.400 C 133.600 131.333,133.623 131.600,134.400 131.600 C 135.177 131.600,135.200 131.333,135.200 122.400 C 135.200 113.467,135.177 113.200,134.400 113.200 C 133.623 113.200,133.600 113.467,133.600 122.400 M136.800 122.400 C 136.800 131.333,136.823 131.600,137.600 131.600 C 138.377 131.600,138.400 131.333,138.400 122.400 C 138.400 113.467,138.377 113.200,137.600 113.200 C 136.823 113.200,136.800 113.467,136.800 122.400 M146.000 122.400 C 146.000 130.311,146.084 131.600,146.600 131.600 C 147.116 131.600,147.200 130.311,147.200 122.400 C 147.200 114.489,147.116 113.200,146.600 113.200 C 146.084 113.200,146.000 114.489,146.000 122.400 M149.200 122.400 C 149.200 131.333,149.223 131.600,150.000 131.600 C 150.777 131.600,150.800 131.333,150.800 122.400 C 150.800 113.467,150.777 113.200,150.000 113.200 C 149.223 113.200,149.200 113.467,149.200 122.400 M152.800 122.400 C 152.800 131.333,152.823 131.600,153.600 131.600 C 154.377 131.600,154.400 131.333,154.400 122.400 C 154.400 113.467,154.377 113.200,153.600 113.200 C 152.823 113.200,152.800 113.467,152.800 122.400 M156.400 122.400 C 156.400 131.333,156.423 131.600,157.200 131.600 C 157.977 131.600,158.000 131.333,158.000 122.400 C 158.000 113.467,157.977 113.200,157.200 113.200 C 156.423 113.200,156.400 113.467,156.400 122.400 M159.600 122.400 C 159.600 131.333,159.623 131.600,160.400 131.600 C 161.177 131.600,161.200 131.333,161.200 122.400 C 161.200 113.467,161.177 113.200,160.400 113.200 C 159.623 113.200,159.600 113.467,159.600 122.400 M163.200 122.400 C 163.200 131.333,163.223 131.600,164.000 131.600 C 164.777 131.600,164.800 131.333,164.800 122.400 C 164.800 113.467,164.777 113.200,164.000 113.200 C 163.223 113.200,163.200 113.467,163.200 122.400 M172.400 122.400 C 172.400 130.311,172.484 131.600,173.000 131.600 C 173.516 131.600,173.600 130.311,173.600 122.400 C 173.600 114.489,173.516 113.200,173.000 113.200 C 172.484 113.200,172.400 114.489,172.400 122.400 M175.600 122.400 C 175.600 131.333,175.623 131.600,176.400 131.600 C 177.177 131.600,177.200 131.333,177.200 122.400 C 177.200 113.467,177.177 113.200,176.400 113.200 C 175.623 113.200,175.600 113.467,175.600 122.400 M179.200 122.400 C 179.200 131.333,179.223 131.600,180.000 131.600 C 180.777 131.600,180.800 131.333,180.800 122.400 C 180.800 113.467,180.777 113.200,180.000 113.200 C 179.223 113.200,179.200 113.467,179.200 122.400 M182.400 122.400 C 182.400 131.333,182.423 131.600,183.200 131.600 C 183.977 131.600,184.000 131.333,184.000 122.400 C 184.000 113.467,183.977 113.200,183.200 113.200 C 182.423 113.200,182.400 113.467,182.400 122.400 M186.000 122.400 C 186.000 131.333,186.023 131.600,186.800 131.600 C 187.577 131.600,187.600 131.333,187.600 122.400 C 187.600 113.467,187.577 113.200,186.800 113.200 C 186.023 113.200,186.000 113.467,186.000 122.400 M189.600 122.400 C 189.600 130.311,189.684 131.600,190.200 131.600 C 190.716 131.600,190.800 130.311,190.800 122.400 C 190.800 114.489,190.716 113.200,190.200 113.200 C 189.684 113.200,189.600 114.489,189.600 122.400 M198.400 122.400 C 198.400 131.333,198.423 131.600,199.200 131.600 C 199.977 131.600,200.000 131.333,200.000 122.400 C 200.000 113.467,199.977 113.200,199.200 113.200 C 198.423 113.200,198.400 113.467,198.400 122.400 M202.000 122.400 C 202.000 131.333,202.023 131.600,202.800 131.600 C 203.577 131.600,203.600 131.333,203.600 122.400 C 203.600 113.467,203.577 113.200,202.800 113.200 C 202.023 113.200,202.000 113.467,202.000 122.400 M205.200 122.400 L 205.200 131.600 206.200 131.600 L 207.200 131.600 207.200 122.400 L 207.200 113.200 206.200 113.200 L 205.200 113.200 205.200 122.400 M208.800 122.400 C 208.800 131.333,208.823 131.600,209.600 131.600 C 210.377 131.600,210.400 131.333,210.400 122.400 C 210.400 113.467,210.377 113.200,209.600 113.200 C 208.823 113.200,208.800 113.467,208.800 122.400 M212.400 122.400 C 212.400 131.333,212.423 131.600,213.200 131.600 C 213.977 131.600,214.000 131.333,214.000 122.400 C 214.000 113.467,213.977 113.200,213.200 113.200 C 212.423 113.200,212.400 113.467,212.400 122.400 M215.600 122.400 C 215.600 131.333,215.623 131.600,216.400 131.600 C 217.177 131.600,217.200 131.333,217.200 122.400 C 217.200 113.467,217.177 113.200,216.400 113.200 C 215.623 113.200,215.600 113.467,215.600 122.400 M224.800 122.400 C 224.800 131.333,224.823 131.600,225.600 131.600 C 226.377 131.600,226.400 131.333,226.400 122.400 C 226.400 113.467,226.377 113.200,225.600 113.200 C 224.823 113.200,224.800 113.467,224.800 122.400 M228.000 122.400 L 228.000 131.600 229.000 131.600 L 230.000 131.600 230.000 122.400 L 230.000 113.200 229.000 113.200 L 228.000 113.200 228.000 122.400 M231.600 122.400 C 231.600 131.333,231.623 131.600,232.400 131.600 C 233.177 131.600,233.200 131.333,233.200 122.400 C 233.200 113.467,233.177 113.200,232.400 113.200 C 231.623 113.200,231.600 113.467,231.600 122.400 M235.200 122.400 C 235.200 131.333,235.223 131.600,236.000 131.600 C 236.777 131.600,236.800 131.333,236.800 122.400 C 236.800 113.467,236.777 113.200,236.000 113.200 C 235.223 113.200,235.200 113.467,235.200 122.400 M238.400 122.400 C 238.400 131.333,238.423 131.600,239.200 131.600 C 239.977 131.600,240.000 131.333,240.000 122.400 C 240.000 113.467,239.977 113.200,239.200 113.200 C 238.423 113.200,238.400 113.467,238.400 122.400 M242.000 122.400 C 242.000 131.333,242.023 131.600,242.800 131.600 C 243.577 131.600,243.600 131.333,243.600 122.400 C 243.600 113.467,243.577 113.200,242.800 113.200 C 242.023 113.200,242.000 113.467,242.000 122.400 M291.567 158.462 C 286.059 168.754,270.161 184.991,256.930 193.836 C 218.323 219.649,156.957 224.052,125.400 203.274 C 120.682 200.168,110.401 191.644,110.400 190.838 C 110.400 190.707,114.405 190.666,119.300 190.746 C 141.729 191.114,161.696 187.194,156.374 183.467 C 155.646 182.957,155.258 182.978,153.074 183.650 C 143.949 186.457,122.549 188.104,110.619 186.917 L 107.439 186.600 105.352 183.460 C 102.597 179.313,99.559 173.091,98.020 168.441 C 96.608 164.177,95.186 158.147,95.514 157.819 C 95.635 157.699,139.900 157.600,193.881 157.600 L 292.028 157.600 291.567 158.462 M162.847 173.452 C 161.613 174.316,160.720 176.523,161.045 177.903 C 162.195 182.785,169.600 182.127,169.600 177.144 C 169.600 175.686,169.541 175.604,168.785 176.008 C 167.134 176.891,165.607 175.469,166.200 173.600 C 166.529 172.563,164.259 172.463,162.847 173.452 M100.526 231.157 C 98.460 232.454,98.400 232.799,98.400 243.374 C 98.400 248.778,98.291 253.200,98.158 253.200 C 98.024 253.200,97.259 252.683,96.458 252.052 C 82.740 241.244,60.652 248.535,55.175 265.677 C 51.765 276.351,57.658 293.072,66.157 296.836 C 66.621 297.042,67.623 297.585,68.385 298.044 C 80.006 305.046,99.561 298.669,105.319 286.000 C 107.445 281.322,107.400 281.965,107.400 256.509 L 107.400 232.819 106.347 231.765 C 104.910 230.328,102.282 230.054,100.526 231.157 M224.031 231.836 L 222.800 232.871 222.800 265.514 L 222.800 298.156 223.875 299.278 C 224.805 300.249,225.255 300.400,227.214 300.400 C 231.289 300.400,232.000 299.008,232.000 291.027 L 232.000 285.848 239.128 292.906 C 246.175 299.885,247.386 300.800,249.572 300.800 C 251.585 300.800,254.002 298.135,253.999 295.920 C 253.996 294.089,253.932 294.017,238.673 278.527 L 234.267 274.054 243.234 265.005 C 254.899 253.231,255.766 251.692,252.418 248.700 C 249.223 245.844,248.016 246.493,237.912 256.500 C 234.858 259.525,232.287 262.000,232.198 262.000 C 232.110 262.000,231.984 255.505,231.919 247.567 L 231.800 233.133 230.494 231.967 C 228.704 230.368,225.844 230.310,224.031 231.836 M279.600 247.375 C 277.149 247.925,273.338 249.449,272.369 250.267 C 272.021 250.560,271.606 250.800,271.446 250.800 C 270.170 250.800,263.742 256.898,262.265 259.509 C 256.348 269.976,256.582 278.972,263.030 288.800 C 266.707 294.405,270.225 297.026,277.618 299.667 C 285.755 302.573,300.600 298.921,300.847 293.953 C 301.120 288.465,297.530 286.891,291.521 289.865 C 289.560 290.835,284.755 291.330,282.281 290.817 L 280.049 290.353 281.725 288.877 C 282.646 288.065,283.490 287.303,283.600 287.185 C 283.710 287.067,285.600 285.429,287.800 283.545 C 290.000 281.660,292.430 279.573,293.200 278.905 C 293.970 278.237,296.130 276.367,298.000 274.749 C 299.870 273.131,301.490 271.716,301.600 271.604 C 301.710 271.492,302.880 270.512,304.200 269.427 C 309.286 265.245,310.005 263.554,308.185 260.052 C 306.978 257.730,301.797 252.000,300.904 252.000 C 300.627 252.000,300.400 251.855,300.400 251.677 C 300.400 251.274,295.964 249.046,293.578 248.250 C 289.175 246.782,283.757 246.443,279.600 247.375 M132.400 247.801 C 120.013 251.194,112.400 261.194,112.400 274.074 C 112.400 298.391,141.426 309.948,158.734 292.522 C 172.428 278.735,166.103 253.985,147.400 248.170 C 144.454 247.254,135.227 247.027,132.400 247.801 M190.088 247.821 C 172.111 252.660,164.953 274.133,175.928 290.294 C 177.563 292.701,181.108 296.188,182.594 296.851 C 183.037 297.048,184.023 297.585,184.785 298.044 C 190.453 301.459,203.933 301.579,209.600 298.265 C 216.274 294.362,212.762 286.169,205.733 289.246 C 197.812 292.715,191.316 291.529,184.866 285.438 C 174.556 275.701,182.635 256.430,197.036 256.404 C 199.464 256.400,201.027 256.775,205.194 258.364 C 210.680 260.454,214.631 257.399,212.631 252.613 C 210.861 248.376,198.101 245.664,190.088 247.821 M336.200 248.348 C 329.650 250.234,323.977 254.543,320.334 260.400 C 317.018 265.732,316.800 267.187,316.800 283.994 L 316.800 297.939 317.824 299.156 C 319.947 301.679,324.300 301.187,325.622 298.275 C 326.319 296.740,326.383 295.508,326.391 283.585 C 326.402 267.966,326.572 267.148,330.731 262.701 C 334.109 259.090,336.649 257.764,341.204 257.234 C 346.655 256.599,348.000 255.583,348.000 252.099 C 348.000 247.785,343.321 246.297,336.200 248.348 M86.503 257.632 C 94.690 260.336,99.881 269.568,97.778 277.685 C 94.746 289.388,82.509 294.698,72.187 288.792 C 54.267 278.540,66.854 251.143,86.503 257.632 M143.696 257.252 C 156.588 261.331,160.604 275.872,151.570 285.756 C 144.723 293.249,133.491 293.083,126.456 285.386 C 114.996 272.846,127.661 252.177,143.696 257.252 M289.556 257.024 C 292.556 257.915,298.000 261.099,298.000 261.962 C 298.000 262.110,296.155 263.782,293.900 265.680 C 291.645 267.578,289.439 269.461,288.998 269.865 C 288.228 270.570,284.063 274.132,282.056 275.800 C 281.527 276.240,280.893 276.791,280.647 277.025 C 280.401 277.259,278.850 278.593,277.200 279.988 C 275.550 281.383,274.017 282.722,273.793 282.962 C 271.901 284.999,271.786 284.991,270.386 282.720 C 262.402 269.771,275.112 252.734,289.556 257.024 " stroke="none" fill="#394d54" fill-rule="evenodd"></path><path id="path3" d="M110.400 190.725 C 110.400 190.904,110.985 191.579,111.700 192.225 L 113.000 193.400 111.861 192.137 C 110.831 190.995,110.792 190.856,111.461 190.683 C 112.066 190.527,112.036 190.484,111.300 190.446 C 110.805 190.421,110.400 190.546,110.400 190.725 M120.700 191.095 C 121.855 191.176,123.745 191.176,124.900 191.095 C 126.055 191.014,125.110 190.948,122.800 190.948 C 120.490 190.948,119.545 191.014,120.700 191.095 M167.905 216.283 C 168.402 216.379,169.122 216.375,169.505 216.275 C 169.887 216.175,169.480 216.096,168.600 216.101 C 167.720 216.105,167.407 216.187,167.905 216.283 " stroke="none" fill="#677e84" fill-rule="evenodd"></path><path id="path4" d="M219.293 69.894 L 219.200 81.188 207.700 81.300 L 196.200 81.413 207.713 81.506 C 216.692 81.579,219.268 81.489,219.419 81.094 C 219.526 80.816,219.562 75.641,219.500 69.594 L 219.387 58.600 219.293 69.894 M199.100 60.662 L 200.000 60.856 200.000 69.998 C 200.000 77.828,199.913 79.168,199.392 79.330 C 198.967 79.462,198.997 79.499,199.492 79.454 C 200.147 79.394,200.200 78.690,200.200 69.995 L 200.200 60.600 199.200 60.534 C 198.319 60.477,198.307 60.492,199.100 60.662 M212.180 60.909 C 212.072 61.189,212.033 65.464,212.092 70.409 L 212.200 79.400 213.106 79.453 C 213.860 79.497,213.877 79.476,213.206 79.325 C 212.427 79.150,212.400 78.841,212.400 70.000 L 212.400 60.856 213.300 60.682 L 214.200 60.509 213.287 60.454 C 212.786 60.425,212.287 60.629,212.180 60.909 M216.300 60.662 L 217.200 60.856 217.200 70.000 C 217.200 78.841,217.173 79.150,216.394 79.325 C 215.723 79.476,215.740 79.497,216.494 79.453 L 217.400 79.400 217.400 70.000 L 217.400 60.600 216.400 60.534 C 215.519 60.477,215.507 60.492,216.300 60.662 M143.776 96.000 C 143.776 102.270,143.832 104.835,143.899 101.700 C 143.967 98.565,143.967 93.435,143.899 90.300 C 143.832 87.165,143.776 89.730,143.776 96.000 M150.973 96.200 C 150.973 101.480,151.030 103.585,151.099 100.877 C 151.168 98.169,151.168 93.849,151.099 91.277 C 151.029 88.705,150.972 90.920,150.973 96.200 M156.173 96.200 C 156.173 101.480,156.230 103.585,156.299 100.877 C 156.368 98.169,156.368 93.849,156.299 91.277 C 156.229 88.705,156.172 90.920,156.173 96.200 M161.373 96.200 C 161.373 101.480,161.430 103.585,161.499 100.877 C 161.568 98.169,161.568 93.849,161.499 91.277 C 161.429 88.705,161.372 90.920,161.373 96.200 M172.173 96.200 C 172.173 101.480,172.230 103.585,172.299 100.877 C 172.368 98.169,172.368 93.849,172.299 91.277 C 172.229 88.705,172.172 90.920,172.173 96.200 M173.773 96.200 C 173.773 101.480,173.830 103.585,173.899 100.877 C 173.968 98.169,173.968 93.849,173.899 91.277 C 173.829 88.705,173.772 90.920,173.773 96.200 M178.973 96.200 C 178.973 101.480,179.030 103.585,179.099 100.877 C 179.168 98.169,179.168 93.849,179.099 91.277 C 179.029 88.705,178.972 90.920,178.973 96.200 M182.573 96.200 C 182.573 101.480,182.630 103.585,182.699 100.877 C 182.768 98.169,182.768 93.849,182.699 91.277 C 182.629 88.705,182.572 90.920,182.573 96.200 M184.173 96.200 C 184.173 101.480,184.230 103.585,184.299 100.877 C 184.368 98.169,184.368 93.849,184.299 91.277 C 184.229 88.705,184.172 90.920,184.173 96.200 M189.373 96.200 C 189.373 101.480,189.430 103.585,189.499 100.877 C 189.568 98.169,189.568 93.849,189.499 91.277 C 189.429 88.705,189.372 90.920,189.373 96.200 M190.973 96.200 C 190.973 101.480,191.030 103.585,191.099 100.877 C 191.168 98.169,191.168 93.849,191.099 91.277 C 191.029 88.705,190.972 90.920,190.973 96.200 M200.173 96.200 C 200.173 101.480,200.230 103.585,200.299 100.877 C 200.368 98.169,200.368 93.849,200.299 91.277 C 200.229 88.705,200.172 90.920,200.173 96.200 M201.773 96.200 C 201.773 101.480,201.830 103.585,201.899 100.877 C 201.968 98.169,201.968 93.849,201.899 91.277 C 201.829 88.705,201.772 90.920,201.773 96.200 M212.173 96.200 C 212.173 101.480,212.230 103.585,212.299 100.877 C 212.368 98.169,212.368 93.849,212.299 91.277 C 212.229 88.705,212.172 90.920,212.173 96.200 M217.373 96.200 C 217.373 101.480,217.430 103.585,217.499 100.877 C 217.568 98.169,217.568 93.849,217.499 91.277 C 217.429 88.705,217.372 90.920,217.373 96.200 M308.860 113.100 C 308.827 114.915,308.935 116.400,309.100 116.401 C 309.265 116.401,309.349 115.366,309.287 114.101 C 309.090 110.087,308.922 109.693,308.860 113.100 M123.524 111.099 C 126.673 111.167,131.713 111.167,134.724 111.099 C 137.736 111.031,135.160 110.976,129.000 110.976 C 122.840 110.976,120.376 111.032,123.524 111.099 M143.781 111.306 C 143.674 111.584,143.638 116.759,143.700 122.806 L 143.813 133.800 143.907 122.506 L 144.000 111.212 155.300 111.100 L 166.600 110.987 155.287 110.894 C 146.469 110.821,143.932 110.912,143.781 111.306 M170.273 111.061 C 170.123 111.211,170.000 116.433,170.000 122.667 L 170.000 134.000 181.606 134.000 L 193.212 134.000 193.106 122.500 L 193.000 111.000 181.773 110.894 C 175.598 110.836,170.423 110.911,170.273 111.061 M207.794 111.097 L 219.188 111.212 219.303 122.506 L 219.419 133.800 219.410 122.400 L 219.400 111.000 207.900 110.991 L 196.400 110.981 207.794 111.097 M228.300 111.099 C 231.435 111.167,236.565 111.167,239.700 111.099 C 242.835 111.032,240.270 110.976,234.000 110.976 C 227.730 110.976,225.165 111.032,228.300 111.099 M140.493 122.294 L 140.400 133.588 128.900 133.700 L 117.400 133.813 128.913 133.906 C 137.892 133.979,140.468 133.889,140.619 133.494 C 140.726 133.216,140.762 128.041,140.700 121.994 L 140.587 111.000 140.493 122.294 M192.800 122.400 L 192.800 133.600 181.600 133.600 L 170.400 133.600 170.400 122.400 L 170.400 111.200 181.600 111.200 L 192.800 111.200 192.800 122.400 M120.300 113.062 L 121.200 113.256 121.200 122.400 C 121.200 131.241,121.173 131.550,120.394 131.725 C 119.723 131.876,119.740 131.897,120.494 131.853 L 121.400 131.800 121.400 122.400 L 121.400 113.000 120.400 112.934 C 119.519 112.877,119.507 112.892,120.300 113.062 M122.800 122.400 L 122.800 132.000 123.900 131.946 C 124.843 131.899,124.872 131.866,124.100 131.718 L 123.200 131.544 123.200 122.400 L 123.200 113.256 124.100 113.082 C 124.872 112.934,124.843 112.901,123.900 112.854 L 122.800 112.800 122.800 122.400 M127.100 113.062 L 128.000 113.256 128.000 122.400 L 128.000 131.544 127.100 131.718 C 126.333 131.865,126.364 131.899,127.307 131.946 L 128.414 132.000 128.307 122.500 L 128.200 113.000 127.200 112.934 C 126.319 112.877,126.307 112.892,127.100 113.062 M133.200 122.400 L 133.200 132.000 134.300 131.946 C 135.243 131.899,135.272 131.866,134.500 131.718 L 133.600 131.544 133.600 122.400 L 133.600 113.256 134.500 113.082 C 135.272 112.934,135.243 112.901,134.300 112.854 L 133.200 112.800 133.200 122.400 M146.500 113.052 C 147.140 113.241,147.200 114.039,147.200 122.400 C 147.200 130.770,147.141 131.557,146.500 131.724 C 145.977 131.861,146.030 131.919,146.707 131.954 L 147.614 132.000 147.507 122.505 C 147.404 113.344,147.372 113.008,146.600 112.928 C 145.978 112.864,145.956 112.892,146.500 113.052 M150.100 113.052 C 150.740 113.241,150.800 114.039,150.800 122.402 C 150.800 130.779,150.741 131.558,150.100 131.711 C 149.567 131.839,149.591 131.869,150.200 131.839 C 150.976 131.801,151.000 131.520,151.000 122.405 C 151.000 113.305,150.975 113.008,150.200 112.928 C 149.578 112.864,149.556 112.892,150.100 113.052 M156.180 113.309 C 156.072 113.589,156.033 117.864,156.092 122.809 L 156.200 131.800 157.106 131.853 C 157.860 131.897,157.877 131.876,157.206 131.725 C 156.427 131.550,156.400 131.241,156.400 122.400 L 156.400 113.256 157.300 113.082 L 158.200 112.909 157.287 112.854 C 156.786 112.825,156.287 113.029,156.180 113.309 M172.267 113.067 C 172.120 113.213,172.000 117.533,172.000 122.667 L 172.000 132.000 173.000 132.000 L 174.000 132.000 174.000 122.400 C 174.000 112.497,173.818 111.516,172.267 113.067 M179.067 113.067 C 178.920 113.213,178.800 117.533,178.800 122.667 L 178.800 132.000 179.900 131.946 C 180.843 131.899,180.872 131.866,180.100 131.718 L 179.200 131.544 179.200 122.400 L 179.200 113.256 180.100 113.082 C 180.935 112.922,180.940 112.905,180.167 112.854 C 179.708 112.825,179.213 112.920,179.067 113.067 M183.100 113.062 L 184.000 113.256 184.000 122.400 L 184.000 131.544 183.100 131.718 C 182.333 131.865,182.364 131.899,183.307 131.946 L 184.414 132.000 184.307 122.500 L 184.200 113.000 183.200 112.934 C 182.319 112.877,182.307 112.892,183.100 113.062 M189.467 113.067 C 189.320 113.213,189.200 117.533,189.200 122.667 L 189.200 132.000 190.200 132.000 L 191.200 132.000 191.200 122.400 C 191.200 112.497,191.018 111.516,189.467 113.067 M199.100 113.062 L 200.000 113.256 200.000 122.400 C 200.000 131.241,199.973 131.550,199.194 131.725 C 198.523 131.876,198.540 131.897,199.294 131.853 L 200.200 131.800 200.200 122.400 L 200.200 113.000 199.200 112.934 C 198.319 112.877,198.307 112.892,199.100 113.062 M212.180 113.309 C 212.072 113.589,212.033 117.864,212.092 122.809 L 212.200 131.800 213.106 131.853 C 213.860 131.897,213.877 131.876,213.206 131.725 C 212.427 131.550,212.400 131.241,212.400 122.400 L 212.400 113.256 213.300 113.082 L 214.200 112.909 213.287 112.854 C 212.786 112.825,212.287 113.029,212.180 113.309 M216.300 113.062 L 217.200 113.256 217.200 122.400 C 217.200 131.241,217.173 131.550,216.394 131.725 C 215.723 131.876,215.740 131.897,216.494 131.853 L 217.400 131.800 217.400 122.400 L 217.400 113.000 216.400 112.934 C 215.519 112.877,215.507 112.892,216.300 113.062 M232.300 113.062 L 233.200 113.256 233.200 122.400 C 233.200 131.241,233.173 131.550,232.394 131.725 C 231.723 131.876,231.740 131.897,232.494 131.853 L 233.400 131.800 233.400 122.400 L 233.400 113.000 232.400 112.934 C 231.519 112.877,231.507 112.892,232.300 113.062 M234.980 113.309 C 234.872 113.589,234.833 117.864,234.892 122.809 L 235.000 131.800 235.906 131.853 C 236.660 131.897,236.677 131.876,236.006 131.725 C 235.227 131.550,235.200 131.241,235.200 122.400 L 235.200 113.256 236.100 113.082 L 237.000 112.909 236.087 112.854 C 235.586 112.825,235.087 113.029,234.980 113.309 M239.100 113.062 L 240.000 113.256 240.000 122.400 L 240.000 131.544 239.100 131.718 C 238.333 131.865,238.364 131.899,239.307 131.946 L 240.414 132.000 240.307 122.500 L 240.200 113.000 239.200 112.934 C 238.319 112.877,238.307 112.892,239.100 113.062 M173.600 122.400 C 173.600 130.311,173.516 131.600,173.000 131.600 C 172.484 131.600,172.400 130.311,172.400 122.400 C 172.400 114.489,172.484 113.200,173.000 113.200 C 173.516 113.200,173.600 114.489,173.600 122.400 M190.800 122.400 C 190.800 130.311,190.716 131.600,190.200 131.600 C 189.684 131.600,189.600 130.311,189.600 122.400 C 189.600 114.489,189.684 113.200,190.200 113.200 C 190.716 113.200,190.800 114.489,190.800 122.400 M294.400 124.925 C 294.400 124.994,294.985 125.579,295.700 126.225 L 297.000 127.400 295.825 126.100 C 294.730 124.888,294.400 124.616,294.400 124.925 M315.300 132.676 C 315.685 132.776,316.315 132.776,316.700 132.676 C 317.085 132.575,316.770 132.493,316.000 132.493 C 315.230 132.493,314.915 132.575,315.300 132.676 M228.524 133.899 C 231.783 133.967,237.003 133.966,240.124 133.899 C 243.246 133.831,240.580 133.776,234.200 133.777 C 227.820 133.777,225.266 133.832,228.524 133.899 M137.500 137.900 C 161.095 137.957,199.705 137.957,223.300 137.900 C 246.895 137.843,227.590 137.796,180.400 137.796 C 133.210 137.796,113.905 137.843,137.500 137.900 M94.493 139.600 C 94.493 140.370,94.575 140.685,94.676 140.300 C 94.776 139.915,94.776 139.285,94.676 138.900 C 94.575 138.515,94.493 138.830,94.493 139.600 M117.549 149.100 C 117.049 149.737,117.064 149.750,117.712 149.241 C 118.337 148.750,118.555 148.799,119.512 149.641 L 120.600 150.600 119.630 149.500 C 118.492 148.209,118.280 148.168,117.549 149.100 M100.900 154.276 C 101.285 154.376,101.915 154.376,102.300 154.276 C 102.685 154.175,102.370 154.093,101.600 154.093 C 100.830 154.093,100.515 154.175,100.900 154.276 M149.300 155.076 C 149.685 155.176,150.315 155.176,150.700 155.076 C 151.085 154.975,150.770 154.893,150.000 154.893 C 149.230 154.893,148.915 154.975,149.300 155.076 M95.462 157.900 C 95.294 158.171,161.520 158.170,256.600 157.898 C 276.180 157.842,247.976 157.752,193.924 157.698 C 139.872 157.644,95.564 157.735,95.462 157.900 M285.775 166.268 C 285.159 167.076,284.859 167.611,285.109 167.456 C 285.621 167.140,287.353 164.800,287.075 164.800 C 286.976 164.800,286.391 165.461,285.775 166.268 M279.978 173.500 L 278.600 175.000 280.100 173.622 C 281.496 172.338,281.784 172.000,281.478 172.000 C 281.412 172.000,280.737 172.675,279.978 173.500 M274.386 179.500 L 272.200 181.800 274.500 179.614 C 276.637 177.582,276.983 177.200,276.686 177.200 C 276.624 177.200,275.589 178.235,274.386 179.500 M269.178 184.300 L 267.800 185.800 269.300 184.422 C 270.696 183.138,270.984 182.800,270.678 182.800 C 270.612 182.800,269.937 183.475,269.178 184.300 M107.270 186.177 C 107.877 186.843,108.820 186.921,117.470 187.019 L 127.000 187.128 117.502 186.815 C 110.661 186.589,107.808 186.354,107.302 185.973 C 106.642 185.475,106.640 185.488,107.270 186.177 M134.905 186.687 C 135.514 186.779,136.414 186.777,136.905 186.682 C 137.397 186.587,136.900 186.511,135.800 186.514 C 134.700 186.517,134.297 186.595,134.905 186.687 M128.700 187.093 C 129.635 187.177,131.165 187.177,132.100 187.093 C 133.035 187.009,132.270 186.940,130.400 186.940 C 128.530 186.940,127.765 187.009,128.700 187.093 M245.500 200.229 C 244.005 201.040,244.096 201.378,245.600 200.600 C 246.260 200.259,246.800 199.894,246.800 199.790 C 246.800 199.532,246.757 199.547,245.500 200.229 M219.400 210.400 C 218.896 210.617,218.822 210.744,219.200 210.744 C 219.530 210.744,220.160 210.589,220.600 210.400 C 221.104 210.183,221.178 210.056,220.800 210.056 C 220.470 210.056,219.840 210.211,219.400 210.400 M195.505 215.083 C 196.002 215.179,196.722 215.175,197.105 215.075 C 197.487 214.975,197.080 214.896,196.200 214.901 C 195.320 214.905,195.007 214.987,195.505 215.083 " stroke="none" fill="#1b7893" fill-rule="evenodd"></path><path id="path5" d="M116.900 191.076 C 117.285 191.176,117.915 191.176,118.300 191.076 C 118.685 190.975,118.370 190.893,117.600 190.893 C 116.830 190.893,116.515 190.975,116.900 191.076 M172.700 216.297 C 174.295 216.373,176.905 216.373,178.500 216.297 C 180.095 216.221,178.790 216.159,175.600 216.159 C 172.410 216.159,171.105 216.221,172.700 216.297 " stroke="none" fill="#849ca2" fill-rule="evenodd"></path><path id="path6" d="M201.773 70.000 C 201.773 75.390,201.830 77.595,201.899 74.900 C 201.968 72.205,201.968 67.795,201.899 65.100 C 201.830 62.405,201.773 64.610,201.773 70.000 M208.573 69.800 C 208.573 75.080,208.630 77.185,208.699 74.477 C 208.768 71.769,208.768 67.449,208.699 64.877 C 208.629 62.305,208.572 64.520,208.573 69.800 M210.573 69.800 C 210.573 75.080,210.630 77.185,210.699 74.477 C 210.768 71.769,210.768 67.449,210.699 64.877 C 210.629 62.305,210.572 64.520,210.573 69.800 M144.000 96.200 L 144.000 107.600 155.400 107.600 L 166.800 107.600 166.800 96.200 L 166.800 84.800 155.400 84.800 L 144.000 84.800 144.000 96.200 M170.177 96.200 C 170.177 102.580,170.232 105.134,170.299 101.876 C 170.367 98.617,170.366 93.397,170.299 90.276 C 170.231 87.154,170.176 89.820,170.177 96.200 M192.977 96.200 C 192.977 102.580,193.032 105.134,193.099 101.876 C 193.167 98.617,193.166 93.397,193.099 90.276 C 193.031 87.154,192.976 89.820,192.977 96.200 M196.400 96.200 L 196.400 107.600 207.800 107.600 L 219.200 107.600 219.200 96.200 L 219.200 84.800 207.800 84.800 L 196.400 84.800 196.400 96.200 M147.600 96.200 C 147.600 105.333,147.577 105.600,146.800 105.600 C 146.023 105.600,146.000 105.333,146.000 96.200 C 146.000 87.067,146.023 86.800,146.800 86.800 C 147.577 86.800,147.600 87.067,147.600 96.200 M151.200 96.200 L 151.200 105.600 150.200 105.600 L 149.200 105.600 149.200 96.200 L 149.200 86.800 150.200 86.800 L 151.200 86.800 151.200 96.200 M154.400 96.200 C 154.400 105.333,154.377 105.600,153.600 105.600 C 152.823 105.600,152.800 105.333,152.800 96.200 C 152.800 87.067,152.823 86.800,153.600 86.800 C 154.377 86.800,154.400 87.067,154.400 96.200 M158.000 96.200 L 158.000 105.600 157.000 105.600 L 156.000 105.600 156.000 96.200 L 156.000 86.800 157.000 86.800 L 158.000 86.800 158.000 96.200 M161.600 96.200 L 161.600 105.600 160.600 105.600 L 159.600 105.600 159.600 96.200 L 159.600 86.800 160.600 86.800 L 161.600 86.800 161.600 96.200 M164.800 96.200 C 164.800 105.333,164.777 105.600,164.000 105.600 C 163.223 105.600,163.200 105.333,163.200 96.200 C 163.200 87.067,163.223 86.800,164.000 86.800 C 164.777 86.800,164.800 87.067,164.800 96.200 M177.292 96.072 C 177.200 105.544,177.200 105.544,176.300 105.718 L 175.400 105.891 176.313 105.946 C 177.616 106.023,177.627 105.927,177.500 95.791 L 177.384 86.600 177.292 96.072 M185.789 96.300 L 185.800 105.800 186.706 105.853 C 187.446 105.897,187.465 105.873,186.813 105.726 C 186.047 105.554,186.010 105.166,185.896 96.173 L 185.778 86.800 185.789 96.300 M187.772 96.000 C 187.772 101.170,187.829 103.285,187.899 100.700 C 187.968 98.115,187.968 93.885,187.899 91.300 C 187.829 88.715,187.772 90.830,187.772 96.000 M200.400 96.200 L 200.400 105.600 199.400 105.600 L 198.400 105.600 198.400 96.200 L 198.400 86.800 199.400 86.800 L 200.400 86.800 200.400 96.200 M203.600 96.200 L 203.600 105.600 202.600 105.600 L 201.600 105.600 201.600 96.200 L 201.600 86.800 202.600 86.800 L 203.600 86.800 203.600 96.200 M207.200 96.200 L 207.200 105.600 206.200 105.600 L 205.200 105.600 205.200 96.200 L 205.200 86.800 206.200 86.800 L 207.200 86.800 207.200 96.200 M210.400 96.200 C 210.400 105.333,210.377 105.600,209.600 105.600 C 208.823 105.600,208.800 105.333,208.800 96.200 C 208.800 87.067,208.823 86.800,209.600 86.800 C 210.377 86.800,210.400 87.067,210.400 96.200 M214.000 96.200 L 214.000 105.600 213.000 105.600 L 212.000 105.600 212.000 96.200 L 212.000 86.800 213.000 86.800 L 214.000 86.800 214.000 96.200 M217.600 96.200 L 217.600 105.600 216.600 105.600 L 215.600 105.600 215.600 96.200 L 215.600 86.800 216.600 86.800 L 217.600 86.800 217.600 96.200 M117.600 122.400 L 117.600 133.600 129.000 133.600 L 140.400 133.600 140.400 122.400 L 140.400 111.200 129.000 111.200 L 117.600 111.200 117.600 122.400 M166.493 122.294 L 166.400 133.588 155.100 133.700 L 143.800 133.813 155.113 133.906 C 163.931 133.979,166.468 133.888,166.619 133.494 C 166.726 133.216,166.762 128.041,166.700 121.994 L 166.587 111.000 166.493 122.294 M170.400 122.400 L 170.400 133.600 181.600 133.600 L 192.800 133.600 192.800 122.400 L 192.800 111.200 181.600 111.200 L 170.400 111.200 170.400 122.400 M222.800 122.400 L 222.800 133.600 234.200 133.600 L 245.600 133.600 245.600 122.400 L 245.600 111.200 234.200 111.200 L 222.800 111.200 222.800 122.400 M121.400 122.400 L 121.400 131.800 120.500 131.928 L 119.600 132.056 119.600 122.400 L 119.600 112.744 120.500 112.872 L 121.400 113.000 121.400 122.400 M124.800 122.400 L 124.800 132.000 123.800 132.000 L 122.800 132.000 122.800 122.400 L 122.800 112.800 123.800 112.800 L 124.800 112.800 124.800 122.400 M128.307 122.500 L 128.414 132.000 127.407 132.000 L 126.400 132.000 126.400 122.372 L 126.400 112.744 127.300 112.872 L 128.200 113.000 128.307 122.500 M131.600 122.400 C 131.600 131.733,131.578 132.000,130.800 132.000 C 130.022 132.000,130.000 131.733,130.000 122.400 C 130.000 113.067,130.022 112.800,130.800 112.800 C 131.578 112.800,131.600 113.067,131.600 122.400 M135.200 122.400 L 135.200 132.000 134.200 132.000 L 133.200 132.000 133.200 122.400 L 133.200 112.800 134.200 112.800 L 135.200 112.800 135.200 122.400 M138.400 122.400 C 138.400 131.733,138.378 132.000,137.600 132.000 C 136.822 132.000,136.800 131.733,136.800 122.400 C 136.800 113.067,136.822 112.800,137.600 112.800 C 138.378 112.800,138.400 113.067,138.400 122.400 M161.373 122.400 C 161.373 127.790,161.430 129.995,161.499 127.300 C 161.568 124.605,161.568 120.195,161.499 117.500 C 161.430 114.805,161.373 117.010,161.373 122.400 M174.000 122.400 L 174.000 132.000 173.000 132.000 L 172.000 132.000 172.000 122.667 C 172.000 113.048,172.032 112.800,173.267 112.800 C 173.957 112.800,174.000 113.358,174.000 122.400 M177.200 122.400 C 177.200 131.733,177.178 132.000,176.400 132.000 C 175.622 132.000,175.600 131.733,175.600 122.400 C 175.600 113.067,175.622 112.800,176.400 112.800 C 177.178 112.800,177.200 113.067,177.200 122.400 M180.800 122.400 L 180.800 132.000 179.800 132.000 L 178.800 132.000 178.800 122.667 C 178.800 113.048,178.832 112.800,180.067 112.800 C 180.757 112.800,180.800 113.358,180.800 122.400 M184.307 122.500 L 184.414 132.000 183.407 132.000 L 182.400 132.000 182.400 122.372 L 182.400 112.744 183.300 112.872 L 184.200 113.000 184.307 122.500 M187.600 122.400 C 187.600 131.733,187.578 132.000,186.800 132.000 C 186.022 132.000,186.000 131.733,186.000 122.400 C 186.000 113.067,186.022 112.800,186.800 112.800 C 187.578 112.800,187.600 113.067,187.600 122.400 M191.200 122.400 L 191.200 132.000 190.200 132.000 L 189.200 132.000 189.200 122.667 C 189.200 113.048,189.232 112.800,190.467 112.800 C 191.157 112.800,191.200 113.358,191.200 122.400 M201.773 122.400 C 201.773 127.790,201.830 129.995,201.899 127.300 C 201.968 124.605,201.968 120.195,201.899 117.500 C 201.830 114.805,201.773 117.010,201.773 122.400 M226.400 122.400 C 226.400 131.733,226.378 132.000,225.600 132.000 C 224.822 132.000,224.800 131.733,224.800 122.400 C 224.800 113.067,224.822 112.800,225.600 112.800 C 226.378 112.800,226.400 113.067,226.400 122.400 M230.000 122.400 L 230.000 132.000 229.000 132.000 L 228.000 132.000 228.000 122.400 L 228.000 112.800 229.000 112.800 L 230.000 112.800 230.000 122.400 M233.400 122.400 L 233.400 131.800 232.500 131.928 L 231.600 132.056 231.600 122.400 L 231.600 112.744 232.500 112.872 L 233.400 113.000 233.400 122.400 M236.800 122.428 L 236.800 132.056 235.900 131.928 C 235.001 131.800,235.000 131.791,234.892 122.809 C 234.774 113.006,234.797 112.800,235.987 112.800 C 236.782 112.800,236.800 113.017,236.800 122.428 M240.307 122.500 L 240.414 132.000 239.407 132.000 L 238.400 132.000 238.400 122.372 L 238.400 112.744 239.300 112.872 L 240.200 113.000 240.307 122.500 M243.600 122.400 C 243.600 131.733,243.578 132.000,242.800 132.000 C 242.022 132.000,242.000 131.733,242.000 122.400 C 242.000 113.067,242.022 112.800,242.800 112.800 C 243.578 112.800,243.600 113.067,243.600 122.400 M319.564 113.413 C 315.409 114.061,309.687 115.891,309.520 116.625 C 309.239 117.869,300.375 128.110,293.618 135.000 C 286.401 142.358,282.345 146.180,275.600 151.982 L 274.600 152.842 275.600 152.580 C 276.984 152.216,279.985 150.452,281.078 149.359 L 281.986 148.450 284.293 149.839 C 286.672 151.272,292.119 153.200,293.787 153.200 C 294.825 153.200,299.537 144.347,302.700 136.457 L 304.200 132.714 310.800 132.614 C 325.150 132.396,335.077 127.778,340.280 118.900 C 341.529 116.769,341.380 116.559,337.560 115.059 C 332.344 113.011,325.916 112.423,319.564 113.413 M145.772 122.400 C 145.772 127.570,145.829 129.685,145.899 127.100 C 145.968 124.515,145.968 120.285,145.899 117.700 C 145.829 115.115,145.772 117.230,145.772 122.400 M162.972 122.400 C 162.972 127.570,163.029 129.685,163.099 127.100 C 163.168 124.515,163.168 120.285,163.099 117.700 C 163.029 115.115,162.972 117.230,162.972 122.400 M208.572 122.400 C 208.572 127.570,208.629 129.685,208.699 127.100 C 208.768 124.515,208.768 120.285,208.699 117.700 C 208.629 115.115,208.572 117.230,208.572 122.400 M210.573 122.600 C 210.573 127.880,210.630 129.985,210.699 127.277 C 210.768 124.569,210.768 120.249,210.699 117.677 C 210.629 115.105,210.572 117.320,210.573 122.600 M202.124 133.899 C 205.383 133.967,210.603 133.966,213.724 133.899 C 216.846 133.831,214.180 133.776,207.800 133.777 C 201.420 133.777,198.866 133.832,202.124 133.899 M94.659 140.100 C 94.333 142.818,94.333 147.481,94.659 151.340 L 94.917 154.400 97.159 154.382 C 99.516 154.364,105.148 153.790,105.383 153.544 C 105.458 153.465,105.276 151.240,104.977 148.600 C 104.679 145.960,104.427 142.495,104.417 140.900 L 104.400 138.000 99.656 138.000 L 94.911 138.000 94.659 140.100 M137.900 155.082 C 138.395 155.178,139.205 155.178,139.700 155.082 C 140.195 154.987,139.790 154.909,138.800 154.909 C 137.810 154.909,137.405 154.987,137.900 155.082 M146.300 155.082 C 146.795 155.178,147.605 155.178,148.100 155.082 C 148.595 154.987,148.190 154.909,147.200 154.909 C 146.210 154.909,145.805 154.987,146.300 155.082 M196.500 155.076 C 196.885 155.176,197.515 155.176,197.900 155.076 C 198.285 154.975,197.970 154.893,197.200 154.893 C 196.430 154.893,196.115 154.975,196.500 155.076 M202.705 155.083 C 203.202 155.179,203.922 155.175,204.305 155.075 C 204.687 154.975,204.280 154.896,203.400 154.901 C 202.520 154.905,202.207 154.987,202.705 155.083 M252.300 155.082 C 252.795 155.178,253.605 155.178,254.100 155.082 C 254.595 154.987,254.190 154.909,253.200 154.909 C 252.210 154.909,251.805 154.987,252.300 155.082 M260.700 155.082 C 261.195 155.178,262.005 155.178,262.500 155.082 C 262.995 154.987,262.590 154.909,261.600 154.909 C 260.610 154.909,260.205 154.987,260.700 155.082 M95.869 159.500 C 96.255 162.144,98.974 171.208,99.944 173.085 C 100.148 173.478,100.986 175.150,101.806 176.800 C 102.627 178.450,104.245 181.258,105.401 183.039 L 107.502 186.278 111.051 186.542 C 126.170 187.666,143.151 186.413,153.283 183.426 C 156.051 182.610,157.200 183.003,157.200 184.765 C 157.200 186.105,156.588 186.702,154.862 187.048 C 150.078 188.004,163.210 204.562,174.400 211.683 C 181.809 216.398,181.776 216.391,192.802 215.202 C 206.936 213.679,220.119 210.853,229.200 207.400 C 236.976 204.444,246.084 200.252,249.919 197.864 C 250.734 197.357,251.670 196.813,252.000 196.655 C 254.767 195.334,263.534 189.087,268.000 185.254 C 276.197 178.219,285.039 168.182,290.514 159.700 L 291.611 158.000 193.631 158.000 L 95.650 158.000 95.869 159.500 M168.704 171.598 C 172.233 173.750,172.661 179.015,169.538 181.852 C 164.006 186.877,155.796 179.617,160.027 173.442 C 161.890 170.724,165.880 169.876,168.704 171.598 " stroke="none" fill="#039bc6" fill-rule="evenodd"></path><path id="path7" d="M154.572 122.400 C 154.572 127.570,154.629 129.685,154.699 127.100 C 154.768 124.515,154.768 120.285,154.699 117.700 C 154.629 115.115,154.572 117.230,154.572 122.400 M164.705 183.483 C 165.202 183.579,165.922 183.575,166.305 183.475 C 166.687 183.375,166.280 183.296,165.400 183.301 C 164.520 183.305,164.207 183.387,164.705 183.483 M164.000 203.800 C 165.195 205.010,166.263 206.000,166.373 206.000 C 166.483 206.000,165.595 205.010,164.400 203.800 C 163.205 202.590,162.137 201.600,162.027 201.600 C 161.917 201.600,162.805 202.590,164.000 203.800 " stroke="none" fill="#52adc9" fill-rule="evenodd"></path><path id="path8" d="M196.667 58.667 C 196.520 58.813,196.400 63.943,196.400 70.067 L 196.400 81.200 207.800 81.200 L 219.200 81.200 219.200 69.800 L 219.200 58.400 208.067 58.400 C 201.943 58.400,196.813 58.520,196.667 58.667 M200.400 70.000 L 200.400 79.600 199.400 79.600 L 198.400 79.600 198.400 70.000 L 198.400 60.400 199.400 60.400 L 200.400 60.400 200.400 70.000 M203.600 70.000 L 203.600 79.600 202.600 79.600 L 201.600 79.600 201.600 70.000 L 201.600 60.400 202.600 60.400 L 203.600 60.400 203.600 70.000 M207.200 70.000 L 207.200 79.600 206.200 79.600 L 205.200 79.600 205.200 70.000 L 205.200 60.400 206.200 60.400 L 207.200 60.400 207.200 70.000 M210.707 69.900 L 210.600 79.400 209.600 79.400 L 208.600 79.400 208.493 69.900 L 208.386 60.400 209.600 60.400 L 210.814 60.400 210.707 69.900 M214.000 70.000 L 214.000 79.600 213.000 79.600 L 212.000 79.600 212.000 70.000 L 212.000 60.400 213.000 60.400 L 214.000 60.400 214.000 70.000 M217.600 70.000 L 217.600 79.600 216.600 79.600 L 215.600 79.600 215.600 70.000 L 215.600 60.400 216.600 60.400 L 217.600 60.400 217.600 70.000 M170.400 96.200 L 170.400 107.600 181.600 107.600 L 192.800 107.600 192.800 96.200 L 192.800 84.800 181.600 84.800 L 170.400 84.800 170.400 96.200 M173.907 96.300 C 173.803 105.498,173.775 105.800,173.000 105.800 C 172.225 105.800,172.197 105.498,172.093 96.300 L 171.986 86.800 173.000 86.800 L 174.014 86.800 173.907 96.300 M177.507 96.300 L 177.400 105.800 176.500 105.928 L 175.600 106.056 175.600 96.428 L 175.600 86.800 176.607 86.800 L 177.614 86.800 177.507 96.300 M180.800 96.428 L 180.800 106.056 179.900 105.928 L 179.000 105.800 178.893 96.300 L 178.786 86.800 179.793 86.800 L 180.800 86.800 180.800 96.428 M184.307 96.300 L 184.200 105.800 183.300 105.928 L 182.400 106.056 182.400 96.428 L 182.400 86.800 183.407 86.800 L 184.414 86.800 184.307 96.300 M187.907 96.300 L 187.800 105.800 186.800 105.800 L 185.800 105.800 185.693 96.300 L 185.586 86.800 186.800 86.800 L 188.014 86.800 187.907 96.300 M191.200 96.428 L 191.200 106.056 190.300 105.928 L 189.400 105.800 189.293 96.300 L 189.186 86.800 190.193 86.800 L 191.200 86.800 191.200 96.428 M292.709 88.849 C 286.278 98.768,287.462 116.732,295.109 125.236 L 296.888 127.216 295.762 128.101 C 290.922 131.909,284.019 134.814,274.800 136.925 L 271.000 137.795 187.700 137.907 L 104.400 138.020 104.400 140.626 C 104.400 143.072,104.957 149.465,105.412 152.246 L 105.616 153.491 107.708 152.996 C 111.328 152.139,113.925 151.153,116.248 149.754 L 118.495 148.401 119.859 149.598 C 129.146 157.753,168.878 156.077,174.637 147.288 L 175.242 146.364 177.192 148.117 C 187.292 157.198,212.178 157.290,223.281 148.288 L 225.400 146.569 226.470 147.805 C 232.279 154.515,267.377 157.765,275.038 152.303 C 283.595 146.202,311.980 116.400,309.233 116.400 C 308.957 116.400,308.800 115.202,308.800 113.099 C 308.800 105.481,305.283 98.294,297.937 90.900 C 293.658 86.593,294.068 86.754,292.709 88.849 M144.000 122.400 L 144.000 133.600 155.200 133.600 L 166.400 133.600 166.400 122.400 L 166.400 111.200 155.200 111.200 L 144.000 111.200 144.000 122.400 M196.400 122.400 L 196.400 133.600 207.800 133.600 L 219.200 133.600 219.200 122.400 L 219.200 111.200 207.800 111.200 L 196.400 111.200 196.400 122.400 M147.600 122.428 L 147.600 132.056 146.700 131.928 C 145.801 131.800,145.800 131.791,145.692 122.809 C 145.574 113.006,145.597 112.800,146.787 112.800 C 147.582 112.800,147.600 113.017,147.600 122.428 M151.200 122.400 L 151.200 132.000 150.200 132.000 L 149.200 132.000 149.200 122.400 L 149.200 112.800 150.200 112.800 L 151.200 112.800 151.200 122.400 M154.600 122.400 L 154.600 131.800 153.700 131.928 L 152.800 132.056 152.800 122.400 L 152.800 112.744 153.700 112.872 L 154.600 113.000 154.600 122.400 M158.000 122.400 L 158.000 132.000 157.000 132.000 L 156.000 132.000 156.000 122.400 L 156.000 112.800 157.000 112.800 L 158.000 112.800 158.000 122.400 M161.600 122.400 L 161.600 132.000 160.600 132.000 L 159.600 132.000 159.600 122.400 L 159.600 112.800 160.600 112.800 L 161.600 112.800 161.600 122.400 M164.800 122.428 L 164.800 132.056 163.900 131.928 C 163.001 131.800,163.000 131.791,162.892 122.809 C 162.774 113.006,162.797 112.800,163.987 112.800 C 164.782 112.800,164.800 113.017,164.800 122.428 M200.400 122.400 L 200.400 132.000 199.400 132.000 L 198.400 132.000 198.400 122.400 L 198.400 112.800 199.400 112.800 L 200.400 112.800 200.400 122.400 M203.600 122.400 L 203.600 132.000 202.600 132.000 L 201.600 132.000 201.600 122.400 L 201.600 112.800 202.600 112.800 L 203.600 112.800 203.600 122.400 M207.200 122.400 L 207.200 132.000 206.200 132.000 L 205.200 132.000 205.200 122.400 L 205.200 112.800 206.200 112.800 L 207.200 112.800 207.200 122.400 M210.707 122.500 L 210.814 132.000 209.607 132.000 L 208.400 132.000 208.400 122.667 C 208.400 112.971,208.440 112.691,209.784 112.883 C 210.576 112.997,210.603 113.282,210.707 122.500 M214.000 122.400 L 214.000 132.000 213.000 132.000 L 212.000 132.000 212.000 122.400 L 212.000 112.800 213.000 112.800 L 214.000 112.800 214.000 122.400 M217.600 122.400 L 217.600 132.000 216.600 132.000 L 215.600 132.000 215.600 122.400 L 215.600 112.800 216.600 112.800 L 217.600 112.800 217.600 122.400 " stroke="none" fill="#24b8eb" fill-rule="evenodd"></path><path id="path9" d="M163.200 171.089 C 156.813 173.489,158.389 183.200,165.165 183.200 C 171.676 183.200,173.867 175.418,168.404 171.700 C 167.123 170.828,164.663 170.539,163.200 171.089 M166.519 172.653 C 166.658 172.792,166.592 173.242,166.372 173.653 C 165.508 175.267,167.790 176.850,169.098 175.542 C 169.821 174.819,170.160 176.904,169.597 178.610 C 168.063 183.257,160.800 182.104,160.800 177.214 C 160.800 174.080,164.776 170.909,166.519 172.653 M149.800 188.432 C 142.732 190.274,128.828 191.431,118.000 191.077 L 110.600 190.835 113.200 193.250 C 125.501 204.674,136.487 210.358,153.600 214.153 C 158.622 215.266,167.977 216.047,174.800 215.921 L 181.400 215.800 178.800 214.452 C 168.020 208.864,159.926 200.885,154.705 190.700 C 153.831 188.995,153.000 187.623,152.858 187.651 C 152.716 187.679,151.340 188.030,149.800 188.432 " stroke="none" fill="#bfdbe0" fill-rule="evenodd"></path></g></svg>