<?xml version="1.0" encoding="UTF-8"?>
<!-- Generator: Adobe Illustrator 18.0.0, SVG Export Plug-In . SVG Version: 6.00 Build 0)  -->
<!DOCTYPE svg PUBLIC "-//W3C//DTD SVG 1.1//EN" "http://www.w3.org/Graphics/SVG/1.1/DTD/svg11.dtd">
<svg version="1.1" id="Layer_1" xmlns="http://www.w3.org/2000/svg" xmlns:xlink="http://www.w3.org/1999/xlink" x="0px" y="0px" viewBox="0 0 104.8 95.3" enable-background="new 0 0 104.8 95.3" xml:space="preserve">
<circle fill="none" stroke="#1691D0" stroke-width="8" stroke-miterlimit="10" cx="54.2" cy="47.7" r="43.7"/>
<path fill="#1691D0" d="M89.3,39.5c6.1,2.1,12.7-1.1,14.8-7.2c2.1-6.1-1.1-12.7-7.2-14.8c-6.1-2.1-12.7,1.1-14.8,7.2  C80,30.8,83.3,37.5,89.3,39.5z"/>
<path fill="#1691D0" d="M77.8,91.5c6.1,2.1,12.7-1.1,14.8-7.2c2.1-6.1-1.1-12.7-7.2-14.8c-6.1-2.1-12.7,1.1-14.8,7.2  C68.5,82.8,71.8,89.5,77.8,91.5z"/>
<path fill="#1691D0" d="M58.8,64.5c6.1,2.1,12.7-1.1,14.8-7.2c2.1-6.1-1.1-12.7-7.2-14.8c-6.1-2.1-12.7,1.1-14.8,7.2  C49.5,55.8,52.8,62.5,58.8,64.5z"/>
<path fill="#1691D0" d="M7.8,69c6.1,2.1,12.7-1.1,14.8-7.2c2.1-6.1-1.1-12.7-7.2-14.8C9.4,45,2.7,48.2,0.6,54.3  C-1.5,60.3,1.8,67,7.8,69z"/>
<line fill="none" stroke="#1691D0" stroke-width="7" stroke-miterlimit="10" x1="93.1" y1="28.6" x2="63.1" y2="53.1"/>
<path fill="#1691D0" d="M73.1,80.2c-0.4,4.9,3.2,9.3,8.2,9.8c5,0.4,9.3-3.2,9.8-8.2c0.4-4.9-3.2-9.3-8.2-9.8  C77.9,71.6,73.6,75.2,73.1,80.2z"/>
<line fill="none" stroke="#1691D0" stroke-width="7" stroke-miterlimit="10" x1="82.1" y1="81" x2="63.2" y2="53.3"/>
<path fill="#1691D0" d="M55.5,58.5c2.7,4.2,8.3,5.4,12.4,2.7c4.2-2.7,5.4-8.3,2.7-12.4c-2.7-4.2-8.3-5.4-12.4-2.7  C54,48.8,52.8,54.3,55.5,58.5z"/>
<path fill="#1691D0" d="M17,50.2C12.4,47.5,6.6,49,3.9,53.5C1.2,58,2.7,63.8,7.2,66.5c4.5,2.7,10.4,1.2,13.1-3.3  C23,58.7,21.5,52.9,17,50.2z"/>
<line fill="none" stroke="#1691D0" stroke-width="7" stroke-miterlimit="10" x1="12.1" y1="58.3" x2="63.7" y2="53.1"/>
</svg>