<?xml version="1.0" encoding="UTF-8" standalone="no"?>
<!-- Generator: Adobe Illustrator 17.0.2, SVG Export Plug-In . SVG Version: 6.00 Build 0)  -->

<svg
   xmlns:dc="http://purl.org/dc/elements/1.1/"
   xmlns:cc="http://creativecommons.org/ns#"
   xmlns:rdf="http://www.w3.org/1999/02/22-rdf-syntax-ns#"
   xmlns:svg="http://www.w3.org/2000/svg"
   xmlns="http://www.w3.org/2000/svg"
   xmlns:sodipodi="http://sodipodi.sourceforge.net/DTD/sodipodi-0.dtd"
   xmlns:inkscape="http://www.inkscape.org/namespaces/inkscape"
   version="1.1"
   id="Layer_1"
   x="0px"
   y="0px"
   width="652.45996"
   height="638.8559"
   viewBox="0 0 652.45996 638.85588"
   enable-background="new 0 0 595.276 841.89"
   xml:space="preserve"
   inkscape:version="0.91pre2 r13516"
   sodipodi:docname="freebsd-logo.svg"><metadata
     id="metadata639"><rdf:RDF><cc:Work
         rdf:about=""><dc:format>image/svg+xml</dc:format><dc:type
           rdf:resource="http://purl.org/dc/dcmitype/StillImage" /><dc:title></dc:title></cc:Work></rdf:RDF></metadata><defs
     id="defs637" /><sodipodi:namedview
     pagecolor="#ffffff"
     bordercolor="#666666"
     borderopacity="1"
     objecttolerance="10"
     gridtolerance="10"
     guidetolerance="10"
     inkscape:pageopacity="0"
     inkscape:pageshadow="2"
     inkscape:window-width="1600"
     inkscape:window-height="853"
     id="namedview635"
     showgrid="false"
     fit-margin-top="0"
     fit-margin-left="0"
     fit-margin-right="0"
     fit-margin-bottom="0"
     inkscape:zoom="0.39643468"
     inkscape:cx="146.04434"
     inkscape:cy="822.58114"
     inkscape:window-x="-4"
     inkscape:window-y="-4"
     inkscape:window-maximized="1"
     inkscape:current-layer="Layer_1" /><path
     d="M 8.8279902,9.5547236 C -29.68262,48.057244 69.25094,209.43083 86.27857,226.45845 c 17.02762,17.01952 62.03498,-0.40504 100.5456,-38.90755 38.51062,-38.50252 55.92707,-83.52608 38.90755,-100.545606 C 208.7041,69.977674 47.33861,-28.947796 8.8279902,9.5547236 Z"
     id="path91"
     inkscape:connector-curvature="0" /><path
     d="m 18.22478,14.358424 c -35.09213,33.35859 59.31316,189.555836 75.3687,206.445756 16.05554,16.88991 57.52291,3.54809 92.59884,-29.8105 35.07593,-33.36668 50.49152,-74.10499 34.42787,-90.9868 C 204.55655,83.108874 53.29261,-18.983956 18.22478,14.358424 Z"
     id="path93"
     inkscape:connector-curvature="0"
     style="fill:#ffffff" /><path
     d="M 15.99709,8.9795736 C -18.23637,41.544294 81.02933,201.49216 97.63572,218.97342 c 16.61448,17.46506 57.83883,5.23304 92.07229,-27.32358 34.23346,-32.56472 48.53116,-73.11671 31.90857,-90.58987 C 205.00209,83.594914 50.23055,-23.585146 15.99709,8.9795736 Z"
     id="path95"
     inkscape:connector-curvature="0" /><path
     d="m 20.53347,11.677104 c -29.5188598,31.1714 73.81337,176.894476 90.45216,192.650296 16.65499,15.75582 54.05582,3.24837 83.56659,-27.91493 29.50266,-31.17141 39.93633,-69.21219 23.28944,-84.959896 C 201.19477,75.688654 50.03614,-19.494306 20.53347,11.677104 Z"
     id="path97"
     inkscape:connector-curvature="0"
     style="fill:#ff3300" /><g
     id="g99"
     transform="matrix(8.100677,0,0,8.100677,-354.64938,-5649.6592)"><circle
       cx="84.439003"
       cy="737.54401"
       r="38.750999"
       id="circle101"
       d="m 123.19,737.54401 a 38.750999,38.750999 0 0 1 -38.750997,38.751 38.750999,38.750999 0 0 1 -38.750999,-38.751 38.750999,38.750999 0 0 1 38.750999,-38.751 38.750999,38.750999 0 0 1 38.750997,38.751 z" /></g><circle
     cx="329.36371"
     cy="324.94653"
     r="305.90588"
     id="circle103"
     style="fill:#ffffff" /><g
     id="g105"
     transform="matrix(8.100677,0,0,8.100677,-354.64938,-5649.6592)"><circle
       cx="82.958"
       cy="736.06201"
       r="37.271"
       id="circle107"
       d="m 120.229,736.06201 a 37.271,37.271 0 0 1 -37.271,37.271 37.271,37.271 0 0 1 -37.271,-37.271 37.271,37.271 0 0 1 37.271,-37.271 37.271,37.271 0 0 1 37.271,37.271 z" /></g><ellipse
     cx="296.3696"
     cy="283.9408"
     rx="260.93091"
     ry="266.92542"
     id="ellipse109"
     style="fill:#ff3300" /><path
     d="M 643.80766,8.6555536 C 682.13196,46.987954 581.74027,209.53613 564.54254,226.73387 c -17.19774,17.19774 -62.2051,0.0648 -100.53751,-38.2757 -38.3405,-38.3324 -55.46533,-83.35596 -38.2757,-100.545596 17.19774,-17.19774 179.74593,-117.58943 218.07833,-79.2570204 z"
     id="path111"
     inkscape:connector-curvature="0" /><path
     d="m 633.77902,20.685054 c 35.01923,35.02733 -60.00171,186.817806 -76.13826,202.962456 -16.13655,16.13655 -57.60392,0.82627 -92.63124,-34.19295 -35.01923,-35.01923 -50.32141,-76.4947 -34.19296,-92.639346 16.15275,-16.12844 167.94323,-111.14939 202.96246,-76.13016 z"
     id="path113"
     inkscape:connector-curvature="0"
     style="fill:#ffffff" /><path
     d="m 632.50721,12.957014 c 33.63402,33.64211 -65.8504,187.676476 -82.43248,204.250456 -16.58209,16.59019 -57.28799,2.75424 -90.9301,-30.87978 -33.64211,-33.63401 -47.46997,-74.35611 -30.88788,-90.930086 16.57398,-16.58209 170.61645,-116.07461 204.25046,-82.44059 z"
     id="path115"
     inkscape:connector-curvature="0" /><path
     d="M 634.14355,9.4575136 C 664.99093,42.524484 556.59577,193.79652 539.14691,210.07888 521.69805,226.36934 482.53938,212.7359 451.6839,179.66084 420.83653,146.59387 409.95732,106.58463 427.41428,90.310374 444.85503,74.011814 603.27997,-23.617546 634.14355,9.4575136 Z"
     id="path117"
     inkscape:connector-curvature="0"
     style="fill:#ff3300" /><path
     d="m 563.93498,219.35415 c -16.19325,16.20136 -58.62459,0.0486 -94.74551,-36.07231 -36.12092,-36.12092 -52.26557,-78.54416 -36.06422,-94.761716 3.5481,-3.54 13.67395,-10.85491 27.72862,-19.75755 -20.81064,-8.3194 -38.2838,-8.81354 -47.65628,0.55895 -19.1257,19.1338 2.73803,72.015006 48.83898,118.115966 46.10095,46.10095 98.98217,67.97278 118.11597,48.83898 8.62722,-8.62722 8.89454,-24.14812 2.3735,-42.81208 -8.3599,13.07449 -15.18877,22.49558 -18.59106,25.88976 z"
     id="path119"
     inkscape:connector-curvature="0" /><rect
     x="215.17783"
     y="-416.43481"
     width="1086"
     height="846"
     id="rect633"
     style="fill:none" /></svg>