<?xml version="1.0" encoding="UTF-8" ?>
<!DOCTYPE svg PUBLIC "-//W3C//DTD SVG 1.1//EN" "http://www.w3.org/Graphics/SVG/1.1/DTD/svg11.dtd">
<svg width="600pt" height="600pt" viewBox="0 0 600 600" version="1.1" xmlns="http://www.w3.org/2000/svg">
<g id="#0068c8ff">
<path fill="#0068c8" opacity="1.00" d=" M 218.17 48.24 C 270.88 24.16 334.06 24.16 386.76 48.27 C 429.74 67.49 465.82 101.84 486.82 144.01 C 516.23 200.88 516.36 271.92 487.08 328.86 C 483.45 336.97 478.38 344.30 473.82 351.90 C 467.79 360.11 461.94 368.50 454.78 375.80 C 448.85 382.83 441.85 388.82 434.97 394.90 C 431.32 369.77 427.06 344.73 422.13 319.82 C 416.76 295.89 411.66 271.87 404.39 248.42 C 394.91 217.37 383.49 186.51 365.97 159.01 C 357.44 146.24 347.50 134.09 334.83 125.22 C 340.29 118.47 340.42 109.22 341.22 100.98 C 341.13 98.09 343.63 96.21 345.17 94.06 C 349.50 88.45 354.22 83.14 358.22 77.28 C 350.17 78.32 342.53 81.14 334.91 83.80 C 326.53 87.22 317.99 91.07 311.51 97.55 C 309.14 99.91 305.43 99.52 302.48 100.67 C 287.54 105.61 273.77 113.42 260.16 121.19 C 246.49 128.63 233.44 137.10 220.16 145.17 C 189.16 164.89 158.56 185.24 128.48 206.33 C 117.66 213.84 106.83 221.35 96.01 228.86 C 97.27 201.99 103.15 175.13 114.80 150.80 C 135.29 105.57 172.85 68.48 218.17 48.24 Z" />
<path fill="#0068c8" opacity="1.00" d=" M 285.47 207.64 C 288.92 204.64 292.63 201.66 297.07 200.32 C 300.86 199.76 304.68 200.75 308.40 201.38 C 319.93 204.27 329.15 212.46 337.29 220.73 C 350.16 234.71 360.27 250.96 369.40 267.55 C 381.90 289.99 391.75 313.74 401.59 337.43 C 409.34 357.49 416.88 377.64 423.54 398.10 C 424.27 399.14 424.23 402.42 426.09 401.61 L 426.79 401.42 C 412.22 412.57 395.97 421.43 379.07 428.52 C 330.87 447.94 275.30 448.10 226.99 428.98 C 203.35 419.39 181.20 405.86 162.59 388.35 C 158.69 384.73 154.43 381.37 151.33 376.99 C 152.79 378.45 154.25 379.91 155.69 381.39 C 187.24 337.07 218.32 292.41 250.68 248.67 C 261.53 234.40 272.34 219.94 285.47 207.64 Z" />
<path fill="#0068c8" opacity="1.00" d=" M 164.03 222.37 C 169.91 220.94 175.95 219.75 182.03 219.99 C 183.90 220.08 186.54 220.64 186.53 223.02 C 186.56 226.16 185.32 229.18 184.09 232.02 C 178.41 244.12 170.38 254.88 163.08 266.02 C 148.28 287.59 133.54 309.21 118.69 330.75 C 103.26 301.03 95.35 267.41 96.04 233.94 C 96.10 236.87 96.13 239.81 96.11 242.75 C 96.85 243.35 97.60 243.95 98.36 244.54 C 119.79 235.89 141.67 228.27 164.03 222.37 Z" />
<path fill="#0068c8" opacity="1.00" d=" M 206.74 245.67 C 210.70 242.50 214.45 237.56 220.06 237.99 C 217.24 246.49 212.10 253.96 207.75 261.72 C 186.93 297.55 164.76 332.57 143.37 368.06 C 144.85 369.69 146.30 371.34 147.72 373.03 C 142.57 368.46 139.13 362.39 134.85 357.06 C 130.88 352.27 128.09 346.68 124.60 341.55 C 137.42 325.68 150.02 309.63 163.20 294.06 C 177.12 277.42 190.81 260.46 206.74 245.67 Z" />
</g>
<g id="#ffffffff">
<path fill="#ffffff" opacity="1.00" d=" M 334.91 83.80 C 342.53 81.14 350.17 78.32 358.22 77.28 C 354.22 83.14 349.50 88.45 345.17 94.06 C 343.63 96.21 341.13 98.09 341.22 100.98 C 340.42 109.22 340.29 118.47 334.83 125.22 C 347.50 134.09 357.44 146.24 365.97 159.01 C 383.49 186.51 394.91 217.37 404.39 248.42 C 411.66 271.87 416.76 295.89 422.13 319.82 C 427.06 344.73 431.32 369.77 434.97 394.90 L 435.00 395.10 C 432.20 397.13 429.70 399.59 426.79 401.42 L 426.09 401.61 C 424.23 402.42 424.27 399.14 423.54 398.10 C 416.88 377.64 409.34 357.49 401.59 337.43 C 391.75 313.74 381.90 289.99 369.40 267.55 C 360.27 250.96 350.16 234.71 337.29 220.73 C 329.15 212.46 319.93 204.27 308.40 201.38 C 304.68 200.75 300.86 199.76 297.07 200.32 C 292.63 201.66 288.92 204.64 285.47 207.64 C 272.34 219.94 261.53 234.40 250.68 248.67 C 218.32 292.41 187.24 337.07 155.69 381.39 C 154.25 379.91 152.79 378.45 151.33 376.99 C 150.07 375.72 148.89 374.38 147.72 373.03 C 146.30 371.34 144.85 369.69 143.37 368.06 C 164.76 332.57 186.93 297.55 207.75 261.72 C 212.10 253.96 217.24 246.49 220.06 237.99 C 214.45 237.56 210.70 242.50 206.74 245.67 C 190.81 260.46 177.12 277.42 163.20 294.06 C 150.02 309.63 137.42 325.68 124.60 341.55 C 122.45 338.05 120.41 334.48 118.69 330.75 C 133.54 309.21 148.28 287.59 163.08 266.02 C 170.38 254.88 178.41 244.12 184.09 232.02 C 185.32 229.18 186.56 226.16 186.53 223.02 C 186.54 220.64 183.90 220.08 182.03 219.99 C 175.95 219.75 169.91 220.94 164.03 222.37 C 141.67 228.27 119.79 235.89 98.36 244.54 C 97.60 243.95 96.85 243.35 96.11 242.75 C 96.13 239.81 96.10 236.87 96.04 233.94 C 96.01 232.24 96.01 230.55 96.01 228.86 C 106.83 221.35 117.66 213.84 128.48 206.33 C 158.56 185.24 189.16 164.89 220.16 145.17 C 233.44 137.10 246.49 128.63 260.16 121.19 C 273.77 113.42 287.54 105.61 302.48 100.67 C 305.43 99.52 309.14 99.91 311.51 97.55 C 317.99 91.07 326.53 87.22 334.91 83.80 Z" />
</g>
<g id="#033c71ff">
<path fill="#033c71" opacity="1.00" d=" M 174.28 450.29 C 179.08 449.12 183.96 448.25 188.89 447.85 C 190.07 462.91 188.98 478.07 189.86 493.15 C 193.07 492.01 196.20 490.64 199.43 489.53 C 209.56 487.12 220.78 487.56 229.99 492.79 C 240.85 498.74 248.34 509.86 250.85 521.88 C 253.57 534.65 251.79 548.64 244.85 559.82 C 239.25 568.91 229.39 574.72 219.08 576.80 C 209.83 578.43 200.38 577.62 191.09 576.80 C 185.59 575.79 179.95 575.15 174.64 573.36 C 173.56 561.62 174.25 549.76 174.00 537.98 C 173.98 508.75 173.82 479.52 174.28 450.29 M 190.01 507.97 C 189.35 511.93 189.64 515.97 189.55 519.97 C 189.53 534.30 189.27 548.65 189.86 562.97 C 198.52 564.25 207.43 564.48 216.11 563.29 C 228.97 559.78 236.62 545.73 235.79 532.93 C 236.43 520.43 229.63 506.86 217.33 502.60 C 208.03 499.99 197.80 502.50 190.01 507.97 Z" />
<path fill="#033c71" opacity="1.00" d=" M 22.02 466.73 C 27.02 465.68 32.00 464.54 37.02 463.54 C 37.19 491.05 37.38 518.56 37.46 546.06 C 37.56 552.76 39.09 561.08 46.18 563.78 C 52.93 566.08 60.23 563.95 67.16 563.61 C 68.78 563.78 68.65 565.75 69.11 566.89 C 69.76 569.59 70.15 572.37 70.10 575.16 C 62.31 577.68 54.01 578.29 45.87 577.81 C 40.25 577.48 34.57 575.51 30.42 571.62 C 24.58 565.74 22.15 557.18 22.18 549.06 C 21.98 521.62 21.97 494.17 22.02 466.73 Z" />
<path fill="#033c71" opacity="1.00" d=" M 447.99 466.74 C 453.00 465.67 457.99 464.51 463.03 463.57 C 463.15 472.26 463.39 480.96 463.51 489.65 C 473.69 489.73 483.87 489.60 494.05 489.65 C 494.10 493.88 494.15 498.11 494.18 502.35 C 483.99 502.47 473.80 502.57 463.61 502.64 C 463.31 516.75 463.38 530.88 463.43 544.99 C 463.61 549.21 463.82 553.57 465.58 557.48 C 467.26 561.26 470.99 563.97 475.04 564.62 C 481.11 565.15 487.15 564.15 493.18 563.59 C 493.48 563.79 494.08 564.21 494.38 564.42 C 495.60 567.82 495.96 571.45 496.18 575.05 C 488.75 577.67 480.75 578.17 472.94 577.88 C 466.75 577.68 460.35 575.62 455.92 571.14 C 450.20 564.95 447.93 556.23 448.13 547.96 C 448.06 520.89 448.00 493.82 447.99 466.74 Z" />
<path fill="#033c71" opacity="1.00" d=" M 361.65 492.88 C 375.81 489.28 390.60 487.34 405.17 489.27 C 414.27 490.87 422.89 496.62 426.74 505.20 C 429.20 510.09 430.41 515.52 430.59 520.98 C 430.93 539.29 431.00 557.60 430.94 575.91 C 425.93 575.91 420.93 575.91 415.92 575.91 C 415.73 558.95 415.63 541.99 415.19 525.04 C 415.37 516.76 412.12 507.15 403.83 503.85 C 395.40 500.72 386.15 502.65 377.46 503.47 C 376.94 527.60 377.07 551.74 376.82 575.88 C 371.86 576.00 366.90 576.15 361.94 575.88 C 361.37 548.22 361.55 520.54 361.65 492.88 Z" />
<path fill="#033c71" opacity="1.00" d=" M 82.43 490.25 C 87.52 490.07 92.61 489.87 97.70 490.04 C 97.71 505.36 97.88 520.68 98.30 535.99 C 98.42 542.03 98.14 548.46 101.11 553.96 C 103.83 559.62 109.67 563.65 116.01 563.79 C 123.27 564.07 130.65 564.10 137.81 562.69 C 138.46 556.81 138.19 550.90 138.30 545.01 C 138.50 526.72 138.43 508.44 138.66 490.16 C 143.73 490.11 148.81 489.93 153.88 489.94 C 153.84 516.29 153.99 542.64 153.64 568.99 C 153.28 570.53 154.22 573.40 152.01 573.81 C 138.46 577.10 124.38 578.57 110.46 577.26 C 101.60 576.21 92.89 571.48 88.30 563.65 C 84.44 557.50 83.06 550.17 82.73 543.01 C 81.87 525.44 82.54 507.84 82.43 490.25 Z" />
<path fill="#033c71" opacity="1.00" d=" M 265.06 491.99 C 264.77 490.27 266.75 490.06 267.95 490.07 C 272.08 489.86 276.22 489.95 280.37 489.95 C 280.45 506.30 280.17 522.67 280.75 539.03 C 281.44 546.30 282.28 554.64 288.15 559.77 C 293.03 564.07 299.89 564.03 306.01 564.01 C 310.87 563.93 315.80 563.82 320.53 562.57 C 321.38 538.46 320.99 514.32 321.22 490.20 C 326.34 490.19 331.48 489.69 336.60 490.17 C 336.37 517.95 336.57 545.73 336.50 573.52 C 323.91 576.62 310.89 578.10 297.92 577.61 C 290.12 577.33 282.01 575.22 276.08 569.91 C 269.60 564.14 266.30 555.46 265.73 546.95 C 265.15 528.64 264.70 510.31 265.06 491.99 Z" />
<path fill="#033c71" opacity="1.00" d=" M 511.23 490.07 C 516.35 489.85 521.48 490.12 526.60 490.26 C 526.70 507.19 526.95 524.12 527.28 541.04 C 527.28 547.79 529.30 554.99 534.35 559.71 C 538.87 563.72 545.21 563.79 550.91 564.04 C 556.25 563.94 561.63 563.74 566.89 562.71 C 567.80 538.53 567.30 514.31 567.32 490.11 C 572.45 489.77 577.60 490.14 582.74 490.23 C 582.77 515.81 582.91 541.40 582.80 566.99 C 582.72 569.07 582.73 571.19 582.21 573.23 C 570.50 576.75 558.16 577.90 545.96 577.59 C 536.85 577.66 527.06 575.21 520.69 568.30 C 513.93 560.98 511.84 550.67 511.57 540.99 C 511.11 524.03 511.46 507.04 511.23 490.07 Z" />
</g>
</svg>
